<svg width="28" height="28" fill="none" xmlns="http://www.w3.org/2000/svg"><path d="M20.636 9.87 26 6.706M3 20.17l5.298-3.072M3 20.17 7.846 25M3 20.17V6.633m14.983 13.06L21.113 25m0 0 4.838-4.822M21.113 25H7.846M7.592 2.066l3.187 5.282m0 0-2.464 2.48v7.27l2.604 2.596h7.121l2.596-2.596m-9.857-9.75h7.335l2.522 2.513v7.237m-9.734 2.596L7.846 25M21.252 2l-3.154 5.34M21.252 2l4.699 4.69v13.488M21.252 2H7.592L3 6.633m17.636 10.465 5.315 3.08M3 6.633l5.38 3.244m10.728-4.23 3.22 3.204v9.224l-3.31 3.303H9.94l-3.319-3.303V8.81L9.77 5.647h9.34Zm1.027-1.725 3.926 3.918v11.262l-4.041 4.033H8.939l-4.05-4.041V7.783l3.836-3.86h11.41Z" stroke="#421515" stroke-width="0.5"></path></svg>