<svg width="28" height="28" fill="none" xmlns="http://www.w3.org/2000/svg"><path d="m9.119 5.468.05 3.92m-.05-3.92 5.512 2.526M9.12 5.468l5.422-3.427 5.775 3.92M9.119 5.467l-.876-2.435m.876 2.435-3.653-.54.86 3.747m2.842.713-1.09 3.903m1.09-3.903 5.463-1.394M9.168 9.388l-2.842-.713m1.753 4.616 1 4.174m-1-4.174L6.326 8.675m1.753 4.616-2.163 4.337m3.162-.163-3.162.163m3.162-.163-.5 3.534m.5-3.534 5.234 1.541m-8.396-1.378-1.998 1.083m1.998-1.082L3.05 13.29l3.276-4.616m-.41 8.953-.45 4.461L8.578 21m11.516.434 1.008 2.452m-1.008-2.452L14.451 25l-5.873-4.001m11.516.434-5.782-2.427m5.782 2.427-.36-3.911m.36 3.911 3.522.656M8.578 21l5.734-1.993M8.578 21l-1.015 2.73m6.749-4.723 5.422-1.484m3.989 4.428-1.016-3.723m0 0-2.973-.705m2.973.705 2.343 1.304m-2.343-1.304 3.276-4.936-2.956-4.018m-.32 8.954-1.892-4.936m2.212-4.018-2.212 4.018m2.212-4.018-3.162.27m3.162-.27.491-4.46-3.202 1.147m2.71 3.313 2.196-1.115m-4.407 5.133-1.08 4.23m1.08-4.23-.95-3.747m0 0 .45-3.584m-.45 3.584-5.234-1.55m5.685-2.034L14.63 7.994m5.685-2.034 1.138-2.738M6.326 8.675 4.172 7.543M14.533 2c-1.261 0-6.675 0-9.075 2.886C3.058 7.773 3 13.258 3 13.258s-.107 5.74 2.457 8.798c2.563 3.059 7.683 2.903 8.993 2.903 1.31 0 6.725 0 9.165-2.91C26.057 19.136 26 16.832 26 13.29c0-3.542-.156-5.74-2.457-8.479C21.24 2.074 16.573 2 14.533 2Z" stroke="#421515" stroke-width="0.5"></path></svg>