<svg width="28" height="28" fill="none" xmlns="http://www.w3.org/2000/svg"><path d="m21.498 4.02-3.927 2.874m3.927-2.874v19.96m0-19.96L18.853.5M17.57 6.894l-1.027-1.322m1.027 1.322v3.566M18.853.5l-2.309 5.072M18.853.5H7.155m9.39 5.072H9.462M4.5 4.02l3.936 2.874M4.5 4.02 7.155.5M4.5 4.02v19.96M8.436 6.894l1.027-1.322M8.436 6.894v14.203M7.155.5l2.308 5.072M21.498 23.98l-3.927-2.883m3.927 2.883-2.645 3.52m-1.282-6.402-1.027 1.33m1.027-1.33V10.462M18.853 27.5l-2.309-5.072m2.309 5.072H7.155m9.39-5.072H9.462M4.5 23.98l3.936-2.883M4.5 23.98l2.655 3.52m1.281-6.402 1.027 1.33M7.155 27.5l2.308-5.072m7.8-18.408 1.59 1.967v16.026l-1.59 1.967H8.744l-1.59-1.967.001-11.552V5.987l1.59-1.967h8.518Zm.817-1.785 2.11 2.778v17.964l-2.11 2.778H7.927l-2.119-2.778V5.013l2.12-2.778H18.08Z" stroke="#421515" stroke-width="0.5"></path></svg>