<svg width="28" height="28" fill="none" xmlns="http://www.w3.org/2000/svg"><path d="M13.532 4.86v3.496m-2.476 11.536 2.404-.537m-2.404.537-4.943.055.35-4.39.197-3.14-2.736-1.894m7.132 9.369-1.812 2.659m4.216-3.196h.144m-.144 0-3.436-2.15-3.14-4.543-1.408-4.106 8.074-2.204L8.912 2.31 5.458 5.915m8.146 13.44 2.404.537m-2.404-.537 3.65-2.076 2.925-4.617 1.409-4.106-8.074-2.204 4.638-4.042 3.462 3.605m-5.606 13.977 4.754.237-.161-4.571-.198-3.142 2.736-1.893m-7.131 9.369 1.543 2.84m3.068-6.682 2.43 1.484m.09-7.011-1.408-1.967-.117-2.64m1.525 4.607 2.602 1.038m-2.602-1.038 1.517 3.87-7.401 3.031-1.39 2.322-2.297 5.008h-.072L11.2 19.746 9.953 17.06l-7.536-2.668 1.507-3.87m19.215 0 2.387-4.07-3.912-.537m0 0 1.247-3.095m-1.247 3.095-4.17 1.512-3.876.956h-.072l-3.875-.956-4.163-1.512m0 0L4.202 2.82m1.256 3.095-3.92.538 2.386 4.07m1.534-4.608-.125 2.64-1.409 1.968m0 0L1.323 11.56m5.041 4.343-2.233 1.784M13.532 25s12.559-5.226 12.559-16.444C26.09 5.688 23.848 2 20.116 2c-4.736 0-6.584 2.832-6.584 2.832S11.738 2 6.974 2C3.252 2 1 5.688 1 8.556 1 19.774 13.559 25 13.559 25h-.027Z" stroke="#421515" stroke-width="0.5" stroke-linejoin="round"></path></svg>