<svg width="28" height="28" fill="none" xmlns="http://www.w3.org/2000/svg"><path d="M17.678 3.152 16.096 4.31m0 0 .26 3.616 3.377 2.583-1.62 3.337 1.496 3.558M16.095 4.31 14 5.196m2.096-.886L14.078.693h-.157L11.905 4.31l-4.02 2.103.379 4.098m7.83-6.2 4.019 2.102-.379 4.097 2.543 3.337-2.67 3.558m-3.56 6.21.436-3.906m-.437 3.906L14 22.854m2.048.76 1.738 1.158m-1.301-5.064 3.125-2.304m-3.125 2.304 1.631-5.862-1.758-5.921L14 5.196m2.484 14.512-2.485 3.146m5.61-5.45.583 4.137-4.144 2.073-1.968 3.694h-.159l-1.97-3.694M14 5.196l-2.096-.884-.26 3.616-3.378 2.582m5.734-5.314-2.357 2.729-1.749 5.921 1.622 5.862M14 22.854l-2.484-3.146M14 22.854l-2.047.76M8.265 10.51l-2.543 3.337L8.4 17.404l-.59 4.137 4.143 2.073M8.265 10.51l1.63 3.338-1.496 3.558 3.116 2.302m.437 3.906-.437-3.906m.437 3.906-1.739 1.158m.118-21.62 1.572 1.158m2.175 23.19a15.364 15.364 0 0 0 6.152-5.644 15.231 15.231 0 0 0 2.27-8.009C22.5 4.607 14.079.5 14.079.5h-.159S5.5 4.608 5.5 13.846a15.232 15.232 0 0 0 2.27 8.009 15.364 15.364 0 0 0 6.152 5.644l.156.001Z" stroke="#421515" stroke-width="0.5"></path></svg>