<svg width="28" height="28" fill="none" xmlns="http://www.w3.org/2000/svg"><path d="m22.12 18.533-2.095-1.824m-3.23 6.625.759-3.722 2.472-2.902m-3.231 6.624L14.03 22.14l3.525-2.527.856-5.573 1.615 2.67m-3.231 6.624 1.46 2.624m-1.46-2.624L14.03 27.5m2.765-4.166 3.962-.54-.73-6.084m0 0 2.464-2.45v-.144l-2.464-2.827 1.053-5.052-4.285-1.562m0 0L14.03.5m2.765 4.175.262 4.32 2.97 2.296-1.616 2.825-1.353-5.122-3.028-2.438 2.765-1.88Zm0 0 1.83-2.188m3.583 7.877-2.18.926m-14.226 6.8 2.22-1.38m0 0 2.658 2.836M8.022 16.71l1.616-2.67 1.042 5.506M8.022 16.71l-.857 5.872 4.09.752M8.022 16.71l-2.464-2.449v-.144l2.464-2.827-1.05-5.177 4.28-1.438L14.02.5m-2.765 22.834-.575-3.788m.575 3.788 2.765-1.195-3.34-2.593m.575 3.788L9.61 25.851m1.645-2.517L14.02 27.5M5.83 10.084l2.19 1.207m0 0 2.97-2.297m-2.97 2.297 1.617 2.825 1.353-5.122m.264-4.319-.264 4.32m.264-4.32 2.765 1.881-3.029 2.438m.264-4.319L9.414 2.447M5.5 14.192C5.5 5.745 9.308.5 14 .5s8.5 5.236 8.5 13.683C22.5 22.63 18.692 27.5 14 27.5s-8.5-4.821-8.5-13.308Z" stroke="#421515" stroke-width="0.5"></path></svg>