<svg width="28" height="28" fill="none" xmlns="http://www.w3.org/2000/svg"><path d="m11.393 4.676-4.585-.761L7.84 9.06m3.554-4.385-.482 3.239m.482-3.24L13.95.588m-6.11 8.474 1.976 3.057-1.893 2.912M7.84 9.061l-2.773 2.633 2.856 3.336M7.84 9.061l3.072-1.146M7.922 15.03l-.372 5.12 4.183 1.321 2.284-1.523-3.08-2.44M7.921 15.03l3.014 2.478M7.922 15.03 5.905 16.44m5.031 1.069.797 3.964m-.797-3.964-1.12-5.388 1.095-4.205m0 0 3.04-1.678M7.838 9.062 5.174 7.81m6.56 13.663-1.338 2.749m1.337-2.749 2.284 5.843M13.95 6.237l-2.559-1.562-1.42-3.132m3.979 4.694 3.046 1.679 1.204 3.943m-4.25-5.622 2.564-1.561 1.362-3.153m-1.362 3.153 4.559-.734-1.005 5.12m0 0-1.868 2.797m1.869-2.797 2.723-.886M18.2 11.859l1.843 3.172m-1.843-3.172-1.037 5.65-.93 3.963m3.81-6.44.324 5.206-4.134 1.234m3.81-6.44 2.051 1.3m-5.861 5.14-2.284-1.523 3.214-2.44 2.88-2.477 2.848-3.337-2.824-2.634-3.072-1.145-.482-3.24L13.95.5m2.284 20.972 1.104 3.007m-1.104-3.007-2.284 5.843m.033.185S23 21.608 23 9.978C23 .84 14.565.5 13.983.5 13.403.5 5 .569 5 9.978 4.965 21.616 13.983 27.5 13.983 27.5Z" stroke="#421515" stroke-width="0.5"></path></svg>