<svg width="28" height="28" fill="none" xmlns="http://www.w3.org/2000/svg"><path d="M5.743 7.783v-.25h-.25v.25h.25Zm3.071 0v.25h.25v-.25h-.25Zm0-3.146v-.25h-.25v.25h.25Zm11.271 0h.25v-.25h-.25v.25Zm0 3.286h-.25v.25h.25v-.25Zm3.278 0h.25v-.25h-.25v.25Zm0 11.187v.25h.25v-.25h-.25ZM3 2v-.25h-.25V2H3Zm23 0h.25v-.25H26V2Zm0 23v.25h.25V25H26ZM3 25h-.25v.25H3V25ZM20.02 4.604l.068.24a.247.247 0 0 0 .032-.011l-.1-.23ZM8.85 7.75l-.068-.24a.25.25 0 0 0-.174.174l.242.066ZM3.189 25l-.23-.1a.25.25 0 0 0 .345.322L3.189 25ZM23.191 8.02l-.227-.105a.247.247 0 0 0-.014.04l.24.066ZM3.09 2.197l.096-.231a.25.25 0 0 0-.322.338l.225-.107Zm5.66 2.366-.097.23a.25.25 0 0 0 .026.01l.07-.24Zm11.334 3.353.24-.068a.25.25 0 0 0-.169-.172l-.07.24Zm3.18 11.229-.24.068a.267.267 0 0 0 .014.038l.226-.106ZM5.743 7.75l.242-.064a.25.25 0 0 0-.016-.044l-.226.108Zm.25 11.36V7.783h-.5V19.11h.5Zm-.25-11.077h3.071v-.5h-3.07v.5Zm3.321-.25V4.637h-.5v3.146h.5Zm-.25-2.896h11.271v-.5H8.815v.5Zm11.021-.25v3.286h.5V4.637h-.5Zm.25 3.536h3.278v-.5h-3.278v.5Zm3.028-.25V19.11h.5V7.923h-.5Zm.25 10.937h-3.244v.5h3.244v-.5Zm-3.494.25v3.015h.5V19.11h-.5Zm.25 2.765H8.75v.5h11.369v-.5ZM9 22.125V19.11h-.5v3.015H9Zm-.25-3.265H5.743v.5H8.75v-.5ZM3 2.25h23v-.5H3v.5ZM25.75 2v23h.5V2h-.5ZM26 24.75H3v.5h23v-.5ZM3.25 25V2h-.5v23h.5ZM25.9 1.77l-5.98 2.604.2.459 5.98-2.604-.2-.458Zm-5.948 2.593L8.782 7.509l.135.482 11.17-3.147-.135-.481ZM8.608 7.684l-3.106 11.36.482.132 3.107-11.36-.483-.132ZM5.514 19.011 2.96 24.9l.458.198 2.555-5.89-.459-.198Zm-2.21 6.211 5.56-2.875-.229-.444-5.56 2.875.229.444Zm5.51-2.855 11.369-3.015-.128-.483-11.37 3.015.13.483Zm11.546-3.19 3.072-11.09-.482-.133-3.072 11.09.482.133Zm3.057-11.05 2.81-6.021-.454-.212-2.809 6.021.453.212Zm-20.423-5.7 5.66 2.366.193-.462-5.66-2.366-.193.461ZM8.68 4.801l11.334 3.352.142-.479L8.822 4.322l-.142.48Zm11.165 3.18 3.18 11.23.48-.136-3.18-11.23-.48.137Zm3.194 11.268 2.734 5.856.454-.212-2.735-5.856-.454.212Zm3.07 5.525-5.88-2.874-.22.449 5.881 2.875.22-.45Zm-5.926-2.891L8.814 18.869l-.128.483 11.369 3.015.128-.483ZM8.992 19.046 5.985 7.686l-.483.128 3.006 11.36.484-.128ZM5.969 7.642 3.316 2.088l-.451.215 2.653 5.555.45-.216Z" fill="#421515"></path></svg>