<svg width="28" height="28" fill="none" xmlns="http://www.w3.org/2000/svg"><path d="m23.52 20.005-3.705-1.206 1.19 3.72m2.514-2.514V7.003m0 13.002-2.513 2.514m0 0L22.344 25m-1.338-2.48L14.5 19.66l-6.497 2.86m13.003 0H8.003M26 21.344l-2.48-1.338-2.793-6.507 2.792-6.497M26 21.344V5.664m0 15.681L22.345 25m1.174-17.997L26 5.663m-2.48 1.34-2.515-2.516H8.003M23.52 7.003 19.815 8.21l1.19-3.72M26 5.662 22.345 2m0 23H6.662m1.34-2.48L6.663 25m1.34-2.48-2.516-2.515V7.003l2.516-2.516M6.663 25 3 21.345M8.003 4.486l6.497 2.86 6.507-2.859L22.344 2M8.005 4.487 6.661 2M5.488 20.005l3.704-1.206-1.19 3.72M3 21.345l2.488-1.338L8.273 13.5 5.488 7.003M3 21.344V5.664l3.663-3.662L22.344 2M5.488 7.003 3 5.663m2.488 1.34L9.192 8.21l-1.19-3.72M14.5 7.404l5.24.87.805 5.225-.804 5.232-5.241.872-5.24-.872-.797-5.232.796-5.224 5.241-.871Z" stroke="#421515" stroke-width="0.5"></path></svg>