<svg width="28" height="28" fill="none" xmlns="http://www.w3.org/2000/svg"><path d="m11.46 6.268 2.974-4.175 3.025 4.142m-6 .033-5.07-.797.846 5.062m4.224-4.265-.994 3.189-1.676 4.109-1.52 2.966m4.19-10.264 2.967 1.52 4.117 1.685 3.18.986M11.46 6.27l-1.372-3.263m7.372 3.23 5.062-.847-.797 5.07m-4.265-4.224-2.95 1.553-4.102 1.726-3.172 1.02M17.46 6.234l1.027 3.18 1.717 4.093 1.553 2.95M17.46 6.236l1.347-3.295m2.918 7.52 4.183 2.982-4.15 3.017m-.033-6-1.52 2.967-1.677 4.117-.986 3.189m4.215-4.273.855 5.062-5.07-.79m4.215-4.273-3.172 1.028-4.092 1.717-2.95 1.553m5.999-.024-2.984 4.175-3.016-4.15m6-.025-2.967-1.529-4.117-1.676-3.189-.995m10.273 4.2 1.372 3.27m-7.372-3.245-5.062.854.79-5.079m4.272 4.224-1.027-3.172-1.725-4.1-1.554-2.95m4.306 10.222-1.355 3.312m-2.918-7.536-4.175-2.975 4.142-3.024m.033 6-3.262 1.38m3.23-7.38L3.964 9.202m21.038-.115-3.271 1.372m3.328 7.347-3.303-1.34m-3.214 1.036 1.644-4.035-1.685-4.01-4.035-1.652-4.01 1.685-1.652 4.035 1.693 4.018 4.035 1.644 4.01-1.685Zm.3-14.647c5.878 2.398 8.7 9.108 6.302 14.987-2.398 5.88-9.108 8.702-14.987 6.303-5.88-2.398-8.702-9.108-6.303-14.987 2.398-5.88 9.108-8.702 14.987-6.303Z" stroke="#421515" stroke-width="0.5"></path></svg>